<?xml version="1.0" standalone="no"?>
<!DOCTYPE svg PUBLIC "-//W3C//DTD SVG 20010904//EN"
 "http://www.w3.org/TR/2001/REC-SVG-20010904/DTD/svg10.dtd">
<svg version="1.0" xmlns="http://www.w3.org/2000/svg"
 width="1280.000000pt" height="1280.000000pt" viewBox="0 0 1280.000000 1280.000000"
 preserveAspectRatio="xMidYMid meet">
<metadata>
Created by potrace 1.11, written by Peter Selinger 2001-2013
</metadata>
<g transform="translate(0.000000,1280.000000) scale(0.100000,-0.100000)"
fill="#000000" stroke="none">
<path d="M6315 12390 c-9 -14 5 -61 31 -106 34 -61 251 -221 554 -409 649
-404 1439 -738 2295 -969 102 -28 363 -91 415 -101 19 -4 58 -13 85 -20 147
-41 774 -142 1115 -180 215 -24 222 -24 497 -45 159 -12 275 -25 295 -33 19
-8 46 -28 60 -45 24 -29 26 -40 34 -179 15 -247 9 -988 -10 -1268 -93 -1419
-402 -2711 -943 -3950 -130 -298 -415 -859 -519 -1023 -19 -29 -34 -54 -34
-57 0 -19 -416 -655 -507 -774 -21 -28 -72 -96 -113 -151 -67 -90 -104 -137
-214 -274 -71 -89 -186 -224 -211 -250 -11 -12 -30 -34 -42 -49 -36 -46 -271
-291 -415 -433 -266 -263 -523 -483 -823 -707 -71 -53 -135 -102 -142 -107
-20 -17 -439 -294 -474 -314 -19 -11 -106 -62 -194 -113 -88 -51 -268 -147
-400 -213 -133 -65 -250 -129 -262 -142 -42 -46 -57 -98 -28 -98 53 0 649 292
845 415 19 12 76 46 125 75 165 99 539 350 620 418 6 4 35 27 65 49 96 72 224
174 255 202 17 14 62 53 100 85 170 142 587 547 786 761 198 214 460 542 691
865 164 230 170 238 316 470 19 30 45 71 57 90 171 266 457 808 615 1165 34
77 70 158 79 180 198 445 449 1192 571 1700 5 22 23 96 39 165 115 476 204
1001 256 1505 8 83 17 170 20 195 29 276 40 571 39 1060 0 558 -9 714 -42 759
-47 64 -80 72 -392 96 -416 33 -780 79 -1185 151 -363 64 -779 157 -861 193
-22 10 -62 21 -90 25 -74 10 -240 58 -574 167 -217 70 -553 200 -780 301 -237
106 -610 294 -722 365 -21 12 -40 23 -43 23 -3 0 -18 8 -33 19 -15 10 -70 44
-122 76 -98 60 -291 186 -300 195 -3 3 -21 17 -40 30 -19 13 -87 62 -150 110
-108 81 -183 119 -195 100z"/>
<path d="M6169 12313 c-42 -32 -88 -67 -103 -78 -16 -11 -40 -29 -55 -41 -82
-66 -584 -384 -605 -384 -3 0 -40 -21 -83 -46 -93 -56 -519 -265 -653 -322
-119 -50 -230 -99 -252 -112 -10 -6 -24 -10 -32 -10 -7 0 -19 -7 -27 -16 -7
-8 -21 -13 -30 -11 -12 3 -24 -4 -34 -20 -13 -19 -22 -23 -42 -18 -16 4 -22 2
-18 -5 3 -5 0 -10 -8 -10 -8 0 -17 -6 -20 -14 -4 -9 -14 -12 -28 -9 -15 4 -20
3 -15 -5 4 -8 -1 -12 -13 -13 -28 -2 -31 -3 -73 -24 -21 -10 -38 -22 -38 -27
0 -4 -11 -8 -25 -8 -14 0 -25 -5 -25 -11 0 -5 -5 -7 -10 -4 -6 4 -29 -3 -52
-15 -59 -30 -120 -52 -145 -51 -13 0 -23 -4 -23 -9 0 -6 -7 -10 -15 -10 -8 0
-15 -4 -15 -8 0 -5 -6 -9 -12 -9 -17 -1 -161 -49 -184 -62 -11 -5 -59 -22
-109 -36 -49 -15 -107 -33 -128 -41 -20 -8 -48 -14 -60 -14 -12 0 -31 -6 -42
-13 -11 -7 -47 -20 -80 -27 -33 -8 -82 -22 -109 -32 -27 -9 -53 -15 -58 -11
-6 3 -20 1 -31 -5 -23 -11 -99 -33 -182 -54 -27 -7 -52 -15 -55 -18 -3 -3 -17
-6 -32 -7 -66 -4 -78 -6 -78 -14 0 -5 -14 -9 -31 -9 -17 0 -80 -12 -141 -26
-62 -14 -130 -27 -152 -28 -23 -2 -52 -8 -66 -14 -24 -10 -24 -11 -2 -11 12
-1 22 3 22 8 0 6 10 9 23 8 37 -3 217 26 217 35 0 5 4 6 10 3 5 -3 27 -1 47 4
21 5 58 12 83 15 25 3 74 12 110 20 36 8 81 18 100 21 19 3 62 12 95 20 33 7
105 24 160 36 115 25 521 131 610 159 764 241 1184 412 1715 698 328 176 769
465 907 595 30 28 34 52 11 67 -4 3 -9 15 -11 25 -6 29 -18 55 -26 55 -4 0
-41 -26 -82 -57z m-1772 -1009 c-3 -3 -12 -4 -19 -1 -8 3 -5 6 6 6 11 1 17 -2
13 -5z m-1150 -450 c-3 -3 -12 -4 -19 -1 -8 3 -5 6 6 6 11 1 17 -2 13 -5z"/>
<path d="M6324 11660 c5 -18 4 -21 -2 -11 -9 12 -14 12 -37 -3 -15 -10 -24
-20 -21 -23 3 -3 12 0 21 7 9 7 18 10 22 6 3 -3 1 -6 -5 -6 -7 0 -12 -5 -12
-11 0 -6 10 -8 23 -5 12 3 17 3 10 0 -8 -4 -6 -17 8 -47 10 -23 19 -50 19 -59
0 -26 -35 -22 -54 6 -8 13 -29 27 -46 31 -39 9 -78 -11 -257 -134 -159 -109
-268 -176 -443 -273 -213 -118 -579 -293 -754 -360 -44 -17 -99 -39 -121 -48
-127 -56 -487 -183 -745 -263 -338 -105 -972 -269 -1190 -308 -25 -4 -130 -26
-235 -48 -104 -22 -209 -43 -231 -46 -23 -3 -73 -11 -111 -19 -39 -9 -117 -22
-174 -31 -57 -8 -131 -20 -164 -25 -119 -19 -133 -20 -161 -5 -16 7 -56 17
-89 20 -51 5 -67 3 -104 -17 -63 -33 -81 -62 -93 -154 -16 -126 3 -782 33
-1089 83 -872 224 -1558 479 -2325 67 -204 172 -494 200 -555 5 -11 30 -72 56
-135 71 -177 205 -471 309 -678 l94 -187 0 -110 c0 -168 39 -327 100 -412 31
-42 111 -113 129 -113 25 0 188 -207 303 -385 76 -116 116 -209 189 -430 43
-128 60 -167 86 -193 l32 -32 132 0 133 0 46 -47 c25 -27 57 -62 71 -78 213
-255 532 -587 726 -755 481 -416 990 -739 1593 -1013 92 -42 166 -56 200 -38
12 7 32 29 45 49 16 26 35 42 62 50 21 6 39 10 41 8 7 -6 -40 -116 -49 -116
-6 0 -8 -7 -4 -15 3 -10 -1 -15 -12 -15 -15 0 -15 -2 -2 -10 12 -8 12 -10 1
-10 -8 0 -12 -2 -9 -5 3 -3 21 1 39 9 19 8 70 29 113 46 44 18 87 36 95 41 9
4 107 53 219 109 111 55 248 127 303 160 55 33 103 60 105 60 4 0 78 46 234
148 391 254 757 563 1100 929 73 79 141 145 151 148 10 3 32 29 51 58 18 29
62 87 98 130 64 77 66 78 150 104 51 16 124 29 183 33 75 5 104 11 125 27 37
27 68 75 86 131 108 343 118 367 199 497 78 125 184 261 284 366 51 53 106
118 122 144 31 50 66 144 75 205 22 144 28 212 22 262 l-6 57 129 263 c489
999 803 2029 950 3118 51 379 74 660 91 1120 11 294 2 666 -15 684 -7 7 -104
21 -231 35 -212 22 -306 33 -539 67 -1229 175 -2316 491 -3197 930 -195 96
-213 106 -388 209 -158 93 -511 329 -574 384 -18 15 -18 15 -12 -9z m650 -849
c3 -5 20 -11 38 -14 18 -2 49 -10 68 -17 19 -7 44 -16 55 -20 11 -4 33 -13 48
-19 15 -6 40 -11 56 -11 15 0 36 -7 47 -15 10 -8 25 -15 32 -15 7 0 38 -12 68
-26 46 -22 54 -29 54 -53 0 -20 -7 -31 -30 -42 -50 -24 -188 -151 -207 -190
-23 -48 -50 -55 -118 -30 -39 15 -91 22 -194 27 l-140 7 -36 -36 -35 -35 0
-180 c0 -98 3 -200 6 -226 8 -53 18 -57 85 -26 64 29 113 25 189 -13 85 -44
115 -96 115 -202 -1 -105 -14 -185 -31 -185 -8 0 -14 9 -14 20 0 32 -62 119
-90 127 -22 6 -60 7 -137 4 -12 -1 -41 -16 -65 -34 -38 -29 -44 -40 -55 -93
-37 -183 -40 -189 -115 -260 -106 -100 -186 -131 -372 -141 -135 -7 -175 3
-214 55 -15 20 -30 39 -34 40 -5 2 -8 16 -8 31 0 15 -5 32 -11 38 -6 6 -13 74
-16 154 -4 115 -2 157 12 209 9 36 22 88 29 115 7 28 24 75 39 105 38 81 70
165 96 250 24 77 49 149 83 234 28 70 94 130 173 156 65 22 177 95 205 134 28
41 114 116 132 116 8 0 25 11 38 25 22 23 30 25 121 25 54 0 101 4 104 10 8
12 22 13 29 1z m660 -276 c13 -9 31 -34 40 -58 10 -23 26 -60 35 -82 23 -51
64 -259 56 -284 -4 -13 -19 -20 -53 -25 -111 -14 -151 -23 -175 -39 -18 -12
-47 -17 -94 -17 -87 0 -110 14 -168 102 -28 42 -45 141 -26 152 6 4 11 14 11
22 0 39 136 182 190 199 13 4 37 16 54 26 37 23 98 25 130 4z m2043 -381 c-3
-3 -12 -4 -19 -1 -8 3 -5 6 6 6 11 1 17 -2 13 -5z m48 -4 c-3 -5 -14 -10 -23
-9 -14 0 -13 2 3 9 27 11 27 11 20 0z m143 -24 c23 -1 42 -5 42 -10 0 -4 12
-5 26 -2 18 5 24 3 18 -5 -4 -7 -3 -9 2 -6 13 7 238 -12 241 -21 2 -4 33 -6
69 -4 39 1 72 -3 80 -9 11 -9 14 -8 14 0 0 7 3 10 8 8 4 -3 30 -7 57 -11 28
-3 64 -8 80 -10 17 -2 125 -12 240 -21 225 -19 237 -23 250 -77 7 -26 5 -28
-21 -23 -16 3 -85 12 -154 20 -146 16 -306 38 -480 66 -69 12 -136 22 -150 24
-51 7 -104 16 -144 25 -22 5 -63 12 -91 15 -27 4 -54 11 -59 16 -6 5 -24 9
-40 9 -17 0 -53 7 -81 15 l-50 15 50 -7 c28 -3 69 -7 93 -7z m-2105 -158 c38
-27 66 -58 67 -74 0 -6 7 -17 15 -24 8 -7 15 -21 15 -32 0 -10 6 -29 14 -41 8
-12 19 -47 26 -78 30 -151 -45 -191 -302 -158 -48 7 -88 16 -88 21 0 5 -11 20
-24 33 -13 13 -29 47 -36 77 -7 29 -16 66 -21 82 -18 60 -4 125 37 172 48 53
233 67 297 22z m3423 -119 c18 -20 19 -38 17 -293 -3 -348 -17 -593 -54 -951
-13 -121 -55 -424 -63 -445 -3 -8 -7 -37 -10 -65 -2 -27 -7 -57 -10 -65 -3 -8
-7 -33 -9 -55 -8 -70 -51 -270 -61 -276 -5 -4 -6 -18 -2 -32 4 -17 1 -31 -9
-41 -17 -16 -21 -51 -5 -41 6 3 10 -1 10 -9 0 -9 -4 -16 -10 -16 -5 0 -10 -9
-10 -20 0 -11 -4 -20 -10 -20 -5 0 -7 -6 -4 -13 2 -7 -9 -55 -26 -106 -16 -52
-30 -100 -30 -106 0 -7 -7 -18 -16 -26 -9 -8 -14 -23 -12 -39 3 -22 1 -26 -14
-22 -13 3 -15 8 -9 16 5 6 12 25 15 41 2 17 5 32 5 35 1 3 6 -2 12 -10 7 -11
8 -6 4 20 -4 21 2 73 15 130 12 52 23 105 26 118 2 12 5 32 8 45 62 326 126
753 140 942 2 28 11 129 20 225 22 256 36 581 36 858 0 229 1 242 18 242 11 0
27 -10 38 -21z m-3423 -398 c65 -36 107 -87 114 -137 8 -64 -79 -294 -111
-294 -8 0 -31 19 -52 43 -20 23 -54 51 -74 62 -20 11 -57 34 -83 50 -26 17
-68 44 -94 60 -26 17 -54 42 -61 57 -20 43 -6 119 31 164 l31 37 123 -6 c112
-6 129 -9 176 -36z m-294 -293 c251 -136 347 -337 312 -656 -11 -104 -26 -144
-65 -181 -44 -41 -75 -25 -184 91 -137 147 -323 328 -376 369 -72 54 -72 117
-2 234 29 48 112 134 129 135 5 0 20 9 34 20 37 29 82 25 152 -12z m-955 -336
c23 -17 54 -53 71 -83 25 -46 29 -65 30 -130 0 -55 -5 -86 -20 -117 -11 -23
-23 -42 -26 -42 -3 0 -15 29 -28 64 -30 87 -49 103 -100 87 -29 -8 -49 -24
-75 -61 -20 -28 -36 -57 -36 -65 0 -9 -9 -52 -21 -97 -12 -44 -22 -90 -24
-102 -11 -94 -117 -313 -186 -386 -56 -60 -75 -58 -66 7 4 21 11 71 16 112 6
41 13 81 16 90 4 9 9 43 12 76 2 33 10 65 17 70 7 6 17 48 24 95 13 93 15 108
25 130 3 8 14 42 23 75 21 76 55 143 111 223 62 86 76 95 142 88 38 -3 66 -14
95 -34z m599 -74 c40 -27 45 -31 250 -236 106 -106 182 -192 207 -232 36 -59
40 -71 40 -133 0 -91 -25 -137 -73 -137 -23 0 -303 288 -425 436 -28 33 -75
82 -106 109 -55 47 -56 48 -56 101 0 52 2 55 42 84 49 36 79 38 121 8z m-195
-255 c41 -10 416 -391 516 -524 35 -46 42 -63 38 -88 -4 -31 -51 -81 -76 -81
-33 0 -527 505 -589 602 -23 37 -22 45 16 79 22 21 38 28 52 24 11 -4 30 -9
43 -12z m-132 -205 c30 -24 356 -348 435 -434 104 -112 124 -182 72 -262 -15
-23 -32 -43 -39 -46 -20 -8 -95 14 -122 34 -13 11 -30 20 -36 21 -6 0 -31 25
-56 55 -25 29 -70 80 -100 112 -30 32 -83 96 -117 142 -34 47 -79 103 -100
125 -108 113 -118 169 -45 248 32 33 69 35 108 5z m1966 -68 c158 -56 218 -95
296 -196 18 -23 46 -57 63 -75 44 -47 172 -188 204 -224 15 -16 44 -56 66 -87
21 -31 43 -59 48 -62 18 -12 51 -132 61 -226 14 -123 12 -197 -5 -230 -7 -14
-16 -44 -20 -65 -8 -40 -53 -184 -56 -175 -1 3 -2 20 -4 39 -11 128 -66 403
-89 440 -4 6 -35 30 -69 53 -101 68 -188 146 -254 227 -34 42 -74 91 -89 109
-14 17 -43 58 -64 90 -82 126 -130 142 -223 74 -29 -21 -106 -71 -172 -112
-66 -40 -136 -86 -155 -102 -19 -15 -38 -28 -42 -28 -4 0 -17 -8 -29 -17 -44
-38 -61 -50 -136 -96 -275 -172 -417 -246 -533 -277 -25 -6 -72 -21 -105 -32
-33 -11 -76 -23 -95 -28 -19 -4 -60 -20 -89 -35 -41 -20 -64 -26 -89 -21 -25
4 -43 0 -63 -14 -26 -19 -69 -27 -69 -14 0 11 31 33 78 55 23 12 42 25 42 30
0 5 7 9 16 9 8 0 32 11 52 25 20 14 44 25 54 25 9 0 21 6 25 14 5 8 102 69
216 136 115 66 216 127 224 136 8 8 54 40 102 72 47 31 88 59 91 63 3 3 32 24
65 47 131 91 296 215 400 301 129 107 138 114 170 148 26 28 64 50 87 52 3 1
44 -12 90 -29z m-2136 -177 c49 -58 81 -94 151 -169 21 -22 49 -55 63 -74 14
-18 39 -49 55 -69 17 -20 64 -81 105 -136 40 -55 78 -106 83 -113 6 -7 12 -31
14 -52 5 -53 -17 -89 -79 -129 l-49 -33 -62 30 c-93 45 -168 128 -299 332 -34
52 -64 97 -67 100 -16 14 -79 120 -94 158 -43 109 6 205 109 211 15 1 37 -18
70 -56z m-828 -100 c58 -47 81 -167 45 -237 -9 -17 -35 -50 -59 -74 -24 -24
-44 -48 -44 -53 0 -5 -6 -9 -12 -9 -9 0 -14 27 -15 96 -2 54 -7 102 -14 110
-7 8 -29 14 -53 13 -41 0 -49 -4 -206 -97 -40 -23 -75 -40 -78 -37 -9 9 17 96
41 135 40 64 99 120 161 150 101 49 176 50 234 3z m605 -136 c15 -18 45 -59
67 -92 21 -33 46 -68 55 -78 9 -10 26 -35 38 -55 11 -20 37 -57 56 -81 52 -64
147 -200 173 -246 33 -61 31 -131 -7 -185 -80 -116 -260 -275 -352 -311 -40
-16 -625 -14 -684 1 -75 20 -157 78 -195 137 -19 29 -34 56 -34 60 0 3 -11 29
-24 57 -40 87 -42 120 -7 176 17 27 39 58 48 69 10 11 41 45 68 77 28 32 68
74 89 93 22 20 73 67 113 105 40 38 87 79 103 91 17 12 38 31 48 42 18 21 97
63 118 63 6 0 17 6 23 14 7 8 24 17 39 21 15 3 38 14 52 23 44 30 134 61 160
56 14 -2 38 -19 53 -37z m-1157 -224 c96 -32 244 -161 244 -214 0 -11 -17 -38
-38 -61 l-38 -41 -63 48 c-34 26 -78 51 -97 55 -32 7 -38 5 -66 -26 -35 -39
-78 -45 -117 -18 -21 15 -23 22 -17 73 8 67 30 146 51 178 19 28 69 31 141 6z
m-831 -264 c71 -17 131 -50 149 -81 13 -20 18 -53 19 -110 l2 -80 -40 -35
c-22 -19 -65 -47 -95 -61 -54 -27 -58 -27 -250 -26 -185 1 -198 2 -245 25 -62
30 -93 88 -97 177 -3 50 1 65 25 100 31 47 91 91 139 102 45 9 343 1 393 -11z
m565 -50 c137 -35 282 -103 334 -156 44 -45 115 -151 140 -209 17 -39 17 -46
2 -96 -10 -35 -28 -67 -51 -90 -77 -76 -160 -68 -336 34 -137 79 -293 184
-347 233 l-47 43 0 84 c1 102 24 150 89 179 45 20 52 19 216 -22z m3118 -15
c91 -5 134 -19 182 -58 8 -7 42 -27 75 -46 111 -60 180 -125 236 -219 18 -31
50 -83 71 -116 21 -33 38 -65 38 -72 0 -7 4 -13 9 -13 4 0 27 -37 49 -83 l42
-83 -5 -154 c-3 -127 -8 -172 -30 -250 -34 -124 -96 -244 -151 -293 -24 -21
-46 -47 -49 -57 -11 -34 -28 -23 -21 13 4 17 13 82 21 142 7 61 21 144 30 185
8 41 20 124 25 184 l9 108 -42 82 c-23 44 -69 116 -102 160 -33 43 -67 89 -76
102 -24 36 -225 244 -236 244 -6 0 -18 9 -28 20 -15 17 -31 20 -100 20 -106 0
-274 -29 -299 -51 -6 -5 -20 -9 -33 -9 -25 0 -125 -37 -133 -50 -3 -4 -21 -10
-40 -13 -76 -12 -136 -26 -164 -36 -15 -6 -72 -16 -125 -21 -179 -18 -276 -30
-336 -41 -83 -16 -194 -26 -207 -18 -11 7 14 34 72 77 19 15 37 30 40 34 8 10
99 48 116 48 8 0 29 8 47 17 18 9 48 20 67 24 19 4 53 13 75 19 22 6 56 15 75
20 19 4 67 18 105 30 39 11 90 25 114 31 25 5 52 16 61 24 9 8 26 15 38 15 12
0 45 11 74 24 92 42 295 79 378 70 19 -2 77 -6 128 -10z m2807 -14 c3 -5 1
-10 -4 -10 -6 0 -11 5 -11 10 0 6 2 10 4 10 3 0 8 -4 11 -10z m-7255 -34 c14
-1 41 -11 62 -20 62 -30 93 -130 103 -331 6 -123 10 -348 7 -472 -2 -98 -3
-103 -34 -143 -24 -31 -47 -47 -83 -59 -59 -20 -90 -17 -80 7 26 64 37 123 32
172 -5 57 -31 119 -51 125 -53 16 -66 14 -117 -21 -30 -20 -61 -44 -69 -53 -8
-9 -29 -27 -47 -39 -40 -29 -68 -73 -93 -152 -42 -131 -24 -169 107 -217 48
-19 72 -33 71 -42 -5 -24 -106 -53 -183 -51 -82 1 -118 23 -161 95 -37 64 -53
124 -59 228 -5 84 -3 101 24 187 17 52 42 131 55 175 13 44 40 125 60 180 19
55 53 151 75 214 47 135 85 181 172 212 51 18 96 19 209 5z m7220 -16 c0 -5
-2 -10 -4 -10 -3 0 -8 5 -11 10 -3 6 -1 10 4 10 6 0 11 -4 11 -10z m-3462
-455 c33 -23 52 -43 52 -55 0 -11 4 -28 10 -38 14 -25 28 -571 15 -597 -6 -11
-21 -46 -34 -77 -12 -31 -31 -64 -42 -74 -10 -9 -19 -23 -19 -31 0 -7 -9 -13
-19 -13 -11 0 -30 -12 -43 -27 -13 -16 -38 -38 -56 -50 -34 -25 -61 -31 -44
-10 5 6 24 45 41 86 37 87 40 145 12 258 -55 224 -63 333 -26 389 21 32 19 61
-4 74 -11 5 -62 10 -114 10 -101 0 -282 23 -301 39 -6 5 -29 13 -51 17 -22 4
-49 13 -60 20 -11 8 -29 14 -42 14 -12 0 -25 5 -28 10 -3 6 -16 10 -28 10 -12
1 -33 7 -46 14 -22 12 -13 14 95 20 65 3 144 10 175 16 30 5 77 10 105 10 27
0 56 5 64 10 8 5 87 10 175 10 l160 0 53 -35z m-2394 -36 c11 -10 -22 -159
-35 -159 -14 0 -18 16 -28 95 -10 88 -8 97 27 83 15 -7 31 -15 36 -19z m1323
-33 c54 -14 114 -30 133 -35 19 -6 46 -11 59 -11 23 0 71 -20 196 -83 55 -27
64 -37 99 -100 66 -121 67 -127 92 -354 7 -71 0 -113 -20 -113 -7 0 -45 28
-84 63 -39 35 -97 78 -130 95 -33 18 -80 54 -104 81 l-43 48 -110 12 c-61 7
-166 17 -235 22 -341 26 -447 56 -488 135 -13 25 1 143 20 174 26 42 95 64
226 71 68 4 126 10 130 13 15 15 168 4 259 -18z m350 -607 c64 -44 163 -135
191 -175 20 -30 22 -45 22 -150 0 -100 -3 -121 -21 -150 -49 -80 -100 -122
-219 -185 -36 -18 -71 -39 -78 -46 -7 -7 -18 -13 -23 -13 -6 0 -47 -37 -92
-83 -89 -90 -159 -139 -222 -156 -22 -5 -105 -21 -185 -35 -162 -28 -175 -32
-328 -102 -42 -19 -69 -24 -137 -24 -49 0 -87 4 -91 11 -3 6 -25 19 -48 29
-22 10 -50 25 -60 33 -18 13 -14 16 55 31 77 17 240 93 319 149 13 9 32 17 41
17 19 0 152 72 183 99 31 27 96 132 96 157 0 29 -96 126 -164 166 -34 20 -65
30 -102 32 -29 1 -59 7 -66 13 -7 6 -49 13 -93 16 -168 13 -251 27 -249 42 2
19 162 103 267 140 91 32 114 37 159 31 164 -19 161 -19 210 4 26 12 84 46
130 76 97 64 147 81 283 95 55 6 102 13 105 15 12 13 73 -7 117 -37z m-2433
-15 c9 -3 16 -17 16 -30 0 -19 -7 -26 -30 -30 -64 -13 -67 -1 91 -382 l43
-102 16 42 c9 24 47 121 84 215 37 95 66 183 64 195 -2 15 -13 24 -35 30 -26
7 -33 14 -33 33 0 32 20 37 144 33 98 -3 100 -3 107 -29 6 -24 3 -28 -31 -42
-43 -17 -45 -20 -142 -267 -187 -474 -174 -445 -201 -448 -22 -3 -28 6 -66
100 -24 57 -54 128 -66 158 -13 30 -47 111 -75 180 -114 278 -110 271 -172
285 -30 6 -37 32 -16 53 13 13 271 18 302 6z m877 -10 c18 -22 0 -48 -37 -52
-16 -2 -35 -8 -41 -14 -18 -15 -19 -603 -1 -614 7 -4 28 -10 48 -14 29 -4 35
-9 35 -30 l0 -25 -159 -3 c-89 -1 -164 2 -169 7 -5 5 -6 18 -2 30 5 16 15 21
39 21 17 0 37 5 44 12 18 18 17 601 0 616 -7 6 -26 12 -42 14 -37 4 -55 30
-37 52 11 13 39 16 161 16 122 0 150 -3 161 -16z m-2074 -667 c106 -23 159
-74 187 -185 32 -120 18 -177 -69 -298 -62 -87 -61 -78 -21 -194 15 -41 43
-131 62 -200 19 -69 37 -133 40 -143 5 -16 1 -18 -27 -15 -30 3 -35 8 -61 73
-55 133 -91 220 -120 287 -15 36 -28 78 -28 92 0 15 22 53 60 100 72 90 88
141 70 215 -14 58 -55 101 -115 121 -69 23 -165 -11 -246 -87 -122 -114 -168
-315 -119 -521 36 -151 63 -182 212 -251 124 -58 195 -74 303 -69 79 3 100 8
165 40 41 20 106 58 145 84 68 48 82 63 177 198 52 72 79 83 113 46 32 -36 30
-104 -9 -263 -45 -187 -90 -287 -173 -390 -27 -34 -32 -97 -8 -97 28 0 97 40
300 176 285 189 681 408 870 479 93 35 524 170 670 210 246 68 524 117 735
130 122 7 518 -11 635 -29 180 -28 356 -70 670 -161 293 -85 691 -276 1022
-491 63 -41 138 -86 166 -100 71 -37 197 -116 293 -185 50 -37 91 -59 107 -59
15 0 27 4 27 8 0 4 -22 43 -50 87 -66 104 -110 250 -140 460 -11 80 -13 215
-3 215 3 0 54 -46 112 -103 182 -176 283 -232 470 -257 299 -41 509 126 528
417 11 167 -36 291 -157 414 -84 84 -127 109 -192 109 -94 0 -147 -70 -148
-193 0 -58 5 -78 35 -137 19 -39 39 -70 44 -70 5 0 14 -14 22 -31 16 -41 6
-93 -58 -293 -35 -109 -54 -152 -70 -163 -26 -17 -43 -10 -43 18 0 11 18 91
40 179 22 88 40 170 40 183 0 13 -18 48 -39 78 -70 99 -89 214 -61 379 7 41
21 92 32 113 44 88 188 103 333 34 249 -119 374 -432 306 -765 -35 -166 -96
-265 -214 -342 -97 -63 -168 -81 -322 -81 -143 1 -223 16 -291 56 -77 45 -164
117 -234 193 l-70 76 0 -40 c0 -69 48 -236 94 -329 25 -50 70 -118 101 -153
77 -88 73 -121 -26 -223 -104 -108 -155 -195 -194 -339 -53 -191 -108 -356
-140 -421 -32 -62 -83 -119 -107 -119 -6 0 -60 31 -122 69 -383 235 -749 420
-1042 527 -240 87 -564 164 -803 189 -186 20 -507 20 -692 0 -399 -43 -896
-177 -1308 -352 -132 -56 -453 -219 -584 -296 -43 -26 -52 -27 -77 -17 -41 17
-66 54 -157 230 -44 85 -94 178 -111 205 -17 28 -51 84 -75 125 -25 41 -91
144 -146 229 -56 85 -101 162 -101 172 0 19 29 64 94 143 57 71 85 125 125
246 39 116 51 200 29 200 -8 0 -44 -37 -81 -83 -81 -102 -122 -140 -213 -195
-107 -64 -174 -85 -274 -85 -141 -1 -292 54 -412 148 -65 50 -97 100 -134 206
-33 91 -44 275 -25 395 39 236 160 414 318 464 70 23 81 23 160 7z m-22 -191
c3 -11 12 -59 20 -106 14 -80 14 -81 9 -20 -3 36 -8 82 -11 103 -7 45 2 46 45
6 33 -31 38 -52 33 -133 -3 -36 -27 -85 -43 -86 -4 0 -9 8 -11 18 -2 9 -3 5
-1 -9 3 -29 -22 -72 -39 -66 -14 4 -37 -37 -37 -67 0 -47 72 -252 167 -474 4
-10 -2 -13 -23 -10 -27 3 -31 10 -62 98 -70 201 -123 407 -149 578 -23 149
-25 175 -12 183 30 19 44 5 51 -51 4 -30 16 -98 27 -150 18 -82 20 -87 15 -35
-3 33 -12 97 -21 142 -8 45 -13 89 -10 97 8 21 46 8 52 -18z m6600 14 c3 -6
-1 -13 -10 -16 -19 -8 -30 0 -20 15 8 14 22 14 30 1z m68 4 c10 -10 -5 -34
-22 -34 -14 0 -14 -2 -1 -10 13 -8 13 -13 -3 -41 -19 -34 -15 -49 12 -49 27 0
30 -8 17 -43 -18 -50 -32 -70 -45 -63 -15 10 -14 32 4 50 19 18 10 45 -13 40
-35 -8 -44 9 -27 52 41 100 56 120 78 98z m52 -34 c0 -8 -8 -16 -17 -18 -13
-2 -18 3 -18 18 0 15 5 20 18 18 9 -2 17 -10 17 -18z m-6843 -143 c22 -201 82
-435 154 -609 30 -71 30 -78 0 -78 -22 0 -28 12 -70 133 -72 207 -85 255 -110
419 -38 244 -41 269 -25 279 8 5 19 7 24 6 6 -2 17 -69 27 -150z m6658 135 c0
-13 -12 -22 -22 -16 -10 6 -1 24 13 24 5 0 9 -4 9 -8z m48 -9 c-5 -26 -38 -29
-38 -4 0 15 6 21 21 21 14 0 19 -5 17 -17z m191 -18 c2 -10 -4 -24 -12 -30
-10 -7 -12 -16 -7 -24 4 -8 -4 -44 -20 -90 -15 -42 -38 -113 -51 -158 -19 -73
-25 -83 -45 -83 -13 0 -26 4 -29 10 -10 17 17 90 34 90 13 0 14 2 2 9 -12 8
-10 19 9 73 34 94 49 120 63 111 9 -5 9 -3 1 8 -9 11 -7 25 9 62 21 48 39 56
46 22z m-6965 -95 c22 -203 52 -335 130 -573 20 -60 36 -110 36 -113 0 -2 -7
-4 -15 -4 -18 0 -42 51 -85 180 -55 163 -80 255 -84 305 -2 28 -11 83 -20 124
-23 106 -23 148 0 165 24 18 28 8 38 -84z m6888 70 c-3 -29 -7 -34 -21 -25 -6
3 -11 17 -11 31 0 19 5 25 18 22 11 -3 16 -12 14 -28z m-182 -14 c0 -8 -4 -18
-10 -21 -5 -3 -10 3 -10 14 0 12 5 21 10 21 6 0 10 -6 10 -14z m50 6 c0 -17
-27 -45 -38 -39 -16 11 -2 47 19 47 11 0 19 -4 19 -8z m264 -14 c14 -23 -11
-53 -30 -37 -23 19 -15 64 10 56 5 -2 14 -10 20 -19z m-7084 -32 c0 -8 -5 -18
-11 -22 -8 -5 -8 -8 0 -14 14 -8 34 -181 24 -206 -4 -12 -3 -15 5 -10 7 4 13
-2 16 -16 21 -110 51 -210 90 -302 26 -60 45 -111 42 -114 -3 -2 -16 -2 -29 2
-21 5 -30 22 -62 123 -21 65 -46 144 -57 176 -13 35 -18 69 -14 87 3 17 2 30
-2 30 -14 0 -31 84 -20 97 7 8 7 13 1 13 -15 0 -24 70 -12 92 7 13 7 23 0 32
-6 8 -9 21 -5 30 8 20 34 21 34 2z m6793 -12 c7 -8 -13 -64 -23 -64 -14 0 -20
31 -10 51 11 19 22 24 33 13z m267 -28 c0 -12 -9 -49 -19 -82 -11 -32 -27 -90
-37 -127 -17 -66 -18 -68 -43 -62 -14 4 -28 8 -30 10 -3 3 18 59 100 273 11
28 29 20 29 -12z m73 10 c15 -22 13 -36 -43 -230 -33 -114 -76 -243 -95 -288
-20 -44 -34 -82 -32 -85 8 -7 75 164 138 350 34 103 65 187 69 187 4 0 12 -11
18 -24 14 -32 -41 -263 -97 -401 -22 -54 -38 -101 -36 -104 3 -2 11 11 19 30
8 19 30 69 50 112 19 43 45 118 57 167 12 50 27 90 32 90 22 0 0 -154 -33
-232 -38 -93 -106 -192 -126 -184 -9 3 -19 -4 -26 -19 -11 -25 -69 -52 -88
-40 -5 3 -10 2 -10 -4 0 -6 -27 -10 -70 -9 -38 0 -70 2 -70 4 0 34 42 46 59
17 6 -10 11 -12 11 -5 0 6 10 12 23 12 15 0 18 3 9 9 -15 9 -7 81 9 81 5 0 8
3 7 8 -6 18 22 72 38 72 14 0 14 3 4 15 -16 19 2 65 25 65 8 0 15 5 15 10 0 6
-6 10 -14 10 -11 0 -12 8 -4 40 6 23 16 40 25 40 8 0 12 4 9 8 -7 12 63 246
75 250 5 2 9 19 9 38 0 41 20 45 43 10z m-273 -5 c0 -32 -11 -51 -29 -51 -26
0 -30 9 -19 41 12 34 48 41 48 10z m-6916 -64 c-4 -12 -9 -28 -12 -36 -3 -8
-1 -12 5 -8 24 15 31 -54 8 -73 -12 -10 -15 -9 -16 6 0 11 -2 37 -5 59 -5 49
3 88 17 80 5 -4 7 -16 3 -28z m560 -44 c13 -141 38 -267 77 -383 44 -128 45
-136 24 -144 -23 -8 -57 84 -58 156 0 15 -5 29 -12 32 -12 4 -31 94 -27 130 1
11 -2 23 -8 26 -14 9 -26 260 -12 260 5 0 13 -35 16 -77z m6326 33 c0 -22 -11
-46 -21 -46 -4 0 -13 10 -20 21 -9 17 -8 23 2 30 21 13 39 11 39 -5z m60 -17
c0 -29 -18 -59 -35 -59 -17 0 -19 18 -5 54 11 31 40 35 40 5z m-6430 -49 c0
-20 -5 -30 -15 -30 -15 0 -21 40 -8 53 14 15 23 6 23 -23z m6160 12 c0 -10 21
-53 47 -96 l46 -78 -13 -80 c-15 -95 -44 -191 -58 -196 -21 -7 -52 50 -52 96
0 40 2 43 17 31 15 -13 15 -12 5 8 -14 26 -16 103 -3 103 5 0 13 -9 16 -20 3
-11 10 -20 15 -20 5 0 0 15 -11 34 -23 40 -33 82 -21 90 5 3 14 -6 21 -21 24
-53 22 -12 -3 51 -27 66 -34 116 -16 116 6 0 10 -8 10 -18z m-6716 -62 c-4
-27 -3 -40 5 -40 12 0 13 -50 2 -90 -11 -40 -24 -6 -16 42 4 23 3 43 -2 47
-12 7 -4 81 8 81 5 0 6 -18 3 -40z m496 -45 c-13 -13 -27 -22 -31 -19 -16 9
-10 37 13 61 23 24 23 24 32 3 7 -16 4 -26 -14 -45z m6460 49 c0 -8 -4 -12
-10 -9 -5 3 -10 10 -10 16 0 5 5 9 10 9 6 0 10 -7 10 -16z m-6386 -40 c5 -18
3 -30 -6 -35 -23 -15 -28 -10 -28 24 0 54 22 61 34 11z m-502 -16 c1 -18 1
-45 0 -60 -1 -19 3 -28 12 -28 17 0 30 -51 21 -79 -3 -11 0 -21 8 -24 8 -3 18
-27 22 -53 3 -26 13 -53 21 -61 15 -15 20 -63 7 -63 -21 1 -35 19 -28 39 4 14
3 21 -5 19 -16 -4 -39 61 -33 90 4 16 1 22 -8 20 -10 -2 -15 12 -17 52 -2 30
-7 59 -12 65 -12 15 -23 82 -16 100 10 26 26 16 28 -17z m458 -26 c0 -15 -6
-34 -12 -41 -11 -10 -10 -14 5 -22 17 -10 24 -54 8 -63 -9 -6 -35 43 -27 52 3
2 -1 14 -9 26 -18 25 -19 48 -3 64 21 21 38 14 38 -16z m45 -80 c-5 -14 -7
-14 -15 -2 -14 21 -12 54 3 69 10 10 13 6 15 -19 2 -18 1 -39 -3 -48z m6421
31 l-6 -28 15 28 c16 28 52 37 61 14 3 -8 0 -26 -6 -41 -8 -22 -14 -26 -32
-20 -13 4 -35 7 -50 6 -21 0 -28 4 -28 18 0 32 11 50 32 50 17 0 19 -5 14 -27z
m-6956 -83 c-1 -51 -2 -53 -15 -36 -16 21 -19 56 -8 94 10 38 23 5 23 -58z
m560 6 c0 -19 -4 -38 -10 -41 -12 -7 -24 39 -16 60 10 27 26 16 26 -19z m6370
10 c0 -20 -22 -56 -35 -56 -17 0 -18 4 -9 38 4 13 14 22 25 22 11 0 19 -2 19
-4z m58 -8 c15 -19 -4 -58 -28 -58 -26 0 -35 22 -20 49 12 24 33 27 48 9z
m-6468 -44 c0 -26 -17 -33 -26 -9 -8 20 3 48 16 40 5 -3 10 -17 10 -31z m60
-34 c0 -16 4 -30 9 -30 5 0 11 -15 14 -32 4 -18 9 -48 13 -65 7 -36 -5 -43
-26 -18 -10 12 -10 19 -2 27 17 17 15 28 -4 28 -13 0 -15 7 -10 30 4 22 2 30
-8 30 -18 0 -29 42 -13 52 21 13 27 9 27 -22z m545 -17 c10 -67 26 -116 72
-230 38 -93 43 -115 33 -128 -7 -8 -16 -15 -19 -15 -8 0 -58 119 -95 226 -20
56 -24 82 -19 127 7 65 19 74 28 20z m5777 32 c11 -11 -20 -80 -37 -83 -15 -3
-17 1 -10 34 4 22 9 42 11 46 6 9 28 11 36 3z m-6872 -37 c0 -29 -2 -31 -15
-17 -9 9 -13 23 -9 32 10 28 24 19 24 -15z m6927 24 c8 -5 10 -17 4 -37 -6
-23 -13 -30 -32 -30 -20 0 -24 4 -21 25 5 49 19 61 49 42z m-6417 -42 c0 -32
-14 -40 -24 -14 -10 27 -7 44 9 44 10 0 15 -10 15 -30z m5622 -64 c7 5 9 -17
7 -68 -4 -61 -2 -72 8 -59 10 13 12 6 13 -41 0 -31 5 -58 10 -60 6 -2 12 -22
13 -45 0 -24 7 -45 14 -47 7 -3 13 -14 13 -25 0 -24 -30 -91 -41 -91 -15 0
-21 22 -10 33 18 18 12 31 -7 14 -11 -11 -22 -13 -32 -7 -12 8 -12 14 3 45 23
49 21 59 -4 13 -18 -35 -21 -37 -47 -27 -34 13 -112 62 -112 70 0 4 18 37 39
74 35 59 61 130 103 275 l13 45 3 -53 c2 -34 7 -50 14 -46z m513 -4 c24 -36
26 -72 5 -72 -28 0 -63 84 -43 103 10 11 11 10 38 -31z m-6115 3 c0 -14 -4
-25 -10 -25 -5 0 -10 11 -10 25 0 14 5 25 10 25 6 0 10 -11 10 -25z m6310 15
c0 -20 -24 -60 -37 -60 -16 0 -16 10 -3 44 9 25 40 37 40 16z m70 0 c0 -26
-32 -70 -50 -70 -22 0 -25 16 -10 54 7 19 17 26 35 26 14 0 25 -5 25 -10z
m-5960 -10 c0 -5 -4 -10 -10 -10 -5 0 -10 5 -10 10 0 6 5 10 10 10 6 0 10 -4
10 -10z m-16 -55 c7 -27 1 -45 -14 -45 -10 0 -22 48 -15 60 11 17 23 11 29
-15z m-386 -13 c4 -25 -13 -30 -22 -6 -9 25 -7 36 7 32 6 -3 13 -14 15 -26z
m561 -101 c28 -70 51 -132 51 -137 0 -5 -9 -15 -20 -22 -17 -10 -21 -10 -25 0
-3 7 -23 62 -45 121 -27 76 -38 117 -33 137 3 17 9 30 13 30 4 0 30 -58 59
-129z m5161 90 c0 -10 9 -21 20 -24 14 -3 18 -10 14 -21 -5 -14 -12 -11 -40
16 -38 38 -48 76 -14 58 11 -6 20 -19 20 -29z m337 -3 c-3 -8 -6 -5 -6 6 -1
11 2 17 5 13 3 -3 4 -12 1 -19z m-5997 8 c0 -3 -4 -8 -10 -11 -5 -3 -10 -1
-10 4 0 6 5 11 10 11 6 0 10 -2 10 -4z m6200 -10 c0 -8 -5 -18 -11 -22 -14 -8
-33 11 -25 25 10 16 36 13 36 -3z m-5920 -21 c18 -47 22 -75 12 -75 -13 0 -44
78 -37 91 9 14 15 11 25 -16z m5370 -25 c0 -5 -2 -10 -4 -10 -3 0 -8 5 -11 10
-3 6 -1 10 4 10 6 0 11 -4 11 -10z m-5399 -41 c16 -32 18 -47 11 -63 -9 -19
-12 -17 -31 27 -12 27 -21 55 -21 63 0 27 20 14 41 -27z m231 -179 c-18 -29
-34 -15 -59 50 -34 90 -36 101 -23 135 12 30 12 29 52 -70 28 -71 37 -104 30
-115z m5198 174 c0 -26 -9 -31 -28 -12 -8 8 -8 17 -1 30 13 24 29 14 29 -18z
m57 20 c3 -8 1 -20 -6 -27 -6 -6 -11 -24 -11 -39 0 -31 -11 -36 -29 -14 -10
12 -8 19 7 34 14 14 17 23 10 30 -11 11 -3 32 13 32 5 0 12 -7 16 -16z m-5530
-80 c22 -49 24 -58 11 -70 -13 -13 -18 -7 -41 48 -31 73 -32 78 -11 78 9 0 26
-23 41 -56z m5580 31 c3 -9 3 -19 -1 -22 -7 -7 -36 16 -36 28 0 15 30 10 37
-6z m-5629 -75 c22 -61 23 -90 4 -90 -5 0 -23 30 -40 67 -23 51 -28 70 -20 80
19 23 32 9 56 -57z m5671 37 c6 -8 8 -16 5 -20 -10 -9 -34 4 -34 19 0 18 14
18 29 1z m-61 -25 c4 -24 -7 -29 -26 -10 -18 18 -15 40 6 36 9 -2 18 -13 20
-26z m-5664 -67 c32 -70 36 -88 26 -100 -7 -8 -16 -15 -20 -15 -11 0 -82 179
-75 191 15 23 33 3 69 -76z m280 76 c3 -5 -1 -14 -9 -21 -13 -10 -15 -9 -15 9
0 21 14 28 24 12z m5314 -19 c5 -31 -15 -27 -21 3 -3 16 0 24 7 22 6 -2 12
-13 14 -25z m195 6 c2 -7 2 -19 0 -25 -7 -17 -43 2 -43 22 0 18 37 20 43 3z
m-63 -30 c0 -25 -13 -37 -31 -27 -18 9 -26 39 -13 52 7 7 44 -14 44 -25z
m-6185 -10 c50 -17 76 -19 155 -14 52 3 105 6 118 8 20 3 28 -8 63 -92 90
-214 171 -418 234 -585 18 -49 45 -121 59 -158 l26 -68 -31 3 c-31 3 -33 6
-74 123 -43 123 -89 239 -167 425 -25 58 -59 143 -77 190 -46 123 -47 125 -53
114 -3 -5 16 -63 44 -129 27 -66 67 -167 90 -225 22 -58 62 -159 88 -225 49
-125 94 -264 87 -271 -2 -2 -38 -5 -80 -6 -79 -1 -116 12 -135 49 -5 10 -29
77 -52 148 -58 181 -89 260 -128 335 -38 72 -237 376 -253 385 -16 11 -10 27
9 20 9 -3 44 -16 77 -27z m756 -46 c-8 -15 -11 -14 -20 11 -8 21 -8 34 1 50
11 21 12 21 20 -11 5 -19 5 -39 -1 -50z m-351 -38 c30 -65 50 -121 50 -142 0
-24 11 -52 35 -86 24 -36 62 -131 125 -316 50 -146 92 -269 93 -274 1 -6 -5
-11 -14 -13 -18 -4 -33 27 -110 237 -28 74 -68 178 -89 230 -102 249 -179 453
-174 461 16 26 38 1 84 -97z m6361 45 c-43 -54 -52 -53 -25 5 15 30 52 60 63
50 2 -2 -15 -26 -38 -55z m-6052 28 c-2 -7 3 -24 10 -38 11 -23 11 -30 -5 -54
-15 -23 -19 -24 -26 -11 -5 9 -8 24 -7 34 1 9 -1 25 -5 34 -9 20 11 61 25 53
5 -4 9 -12 8 -18z m5386 13 c3 -5 3 -21 -1 -35 -6 -24 -8 -25 -21 -12 -9 9
-13 23 -8 36 7 22 20 27 30 11z m213 -14 c3 -13 -1 -17 -14 -14 -11 2 -20 11
-22 22 -3 13 1 17 14 14 11 -2 20 -11 22 -22z m-80 -10 c6 -27 -11 -38 -33
-22 -17 12 -17 16 -6 30 17 20 35 16 39 -8z m139 16 c9 -6 9 -18 -3 -52 -9
-25 -17 -46 -19 -48 -9 -9 -45 11 -45 24 0 30 -18 3 -25 -36 -4 -23 -12 -40
-20 -40 -21 0 -37 27 -30 50 5 16 12 19 28 14 21 -6 21 -6 5 13 -34 37 -14 66
27 39 13 -9 34 -16 47 -16 21 0 21 1 3 14 -33 24 -2 60 32 38z m343 -7 c0 -3
-18 -42 -39 -87 -22 -46 -49 -108 -62 -138 -12 -30 -39 -91 -60 -135 -21 -44
-58 -141 -83 -215 -25 -74 -54 -162 -66 -194 -24 -67 -49 -110 -51 -86 0 8 -5
3 -11 -12 -10 -30 -52 -40 -61 -15 -3 7 -6 5 -6 -5 -1 -11 -9 -18 -22 -18 -18
0 -21 4 -16 28 9 47 17 107 13 97 -3 -5 -12 -35 -20 -66 -11 -41 -22 -58 -36
-62 -27 -7 -27 -8 24 248 53 261 104 447 130 470 6 6 11 24 12 40 1 17 10 55
22 85 18 49 24 55 51 58 31 3 41 -12 23 -34 -24 -26 -148 -454 -139 -477 4 -7
6 -6 6 4 4 69 149 497 170 500 37 5 53 4 57 -2 3 -5 -11 -43 -31 -86 -45 -97
-99 -244 -125 -343 -11 -41 -27 -97 -34 -125 -59 -212 -76 -278 -73 -282 3 -2
14 33 26 79 12 46 46 157 76 248 111 344 208 551 242 517 3 -4 -18 -59 -47
-124 -47 -105 -161 -432 -160 -458 1 -5 25 55 54 135 94 256 173 435 198 452
14 9 38 11 38 3z m-551 -38 c0 -7 -4 -20 -8 -30 -7 -18 -7 -18 -28 0 -17 14
-20 23 -12 41 7 19 12 21 29 12 11 -6 20 -16 19 -23z m-5369 -11 c0 -8 -6 -19
-14 -25 -20 -16 -30 3 -16 29 11 21 30 19 30 -4z m5416 -28 c-3 -17 -8 -33
-10 -36 -10 -9 -26 11 -26 32 0 26 8 36 28 36 11 0 13 -8 8 -32z m-5550 -5
c-10 -10 -19 5 -10 18 6 11 8 11 12 0 2 -7 1 -15 -2 -18z m5317 14 c8 -22 -4
-67 -19 -67 -21 0 -26 19 -12 50 14 33 23 37 31 17z m-5293 -58 c0 -10 -7 -19
-15 -19 -15 0 -21 31 -9 43 11 10 24 -3 24 -24z m5640 11 c20 -10 17 -50 -4
-50 -23 0 -35 16 -29 38 6 25 8 26 33 12z m-146 -6 c18 -7 20 -22 6 -44 -9
-13 -11 -13 -20 0 -10 15 -14 50 -6 50 2 0 11 -3 20 -6z m-174 -19 c0 -8 -7
-15 -15 -15 -16 0 -20 12 -8 23 11 12 23 8 23 -8z m243 -10 c17 -12 18 -18 7
-51 l-13 -38 -18 23 c-19 23 -25 62 -12 74 9 10 15 8 36 -8z m-5638 -5 c3 -5
1 -10 -4 -10 -6 0 -11 5 -11 10 0 6 2 10 4 10 3 0 8 -4 11 -10z m5414 -29
c-15 -5 -22 6 -14 19 6 9 10 9 16 -1 5 -8 4 -15 -2 -18z m293 3 c5 -4 -28
-120 -37 -132 -1 -1 -10 0 -19 4 -17 6 -22 49 -7 58 5 3 12 22 15 41 5 24 12
35 25 35 10 0 20 -3 23 -6z m-48 -162 c2 -4 -4 -43 -14 -87 -77 -339 -100
-447 -100 -464 0 -19 -36 -48 -47 -38 -7 7 77 420 89 434 5 7 7 16 4 21 -3 5
1 19 7 33 7 13 14 39 15 58 1 19 5 38 8 42 6 11 31 12 38 1z m-61 -26 c-6 -27
-36 -60 -51 -55 -11 4 34 79 47 79 4 0 6 -11 4 -24z m-23 -89 c0 -13 -3 -27
-7 -31 -4 -3 -8 -14 -9 -23 -8 -50 -15 -63 -38 -63 -19 0 -22 4 -19 25 3 13
14 27 26 31 18 6 18 7 4 15 -18 11 -13 37 11 57 23 18 32 15 32 -11z m-5561
-67 c5 -14 30 -79 56 -145 25 -66 57 -150 72 -188 28 -70 27 -85 -4 -69 -16 9
-79 177 -99 267 -4 17 -22 65 -41 108 -18 43 -33 84 -33 90 1 16 37 -31 49
-63z m5496 39 c-3 -8 -14 -20 -25 -27 -17 -11 -20 -10 -20 7 0 25 30 55 42 43
5 -5 6 -15 3 -23z m-20 -71 c-4 -13 -16 -32 -26 -43 -19 -19 -19 -19 -19 12 0
20 7 36 18 42 27 16 34 13 27 -11z m-70 -41 c-8 -29 -30 -53 -39 -39 -6 10 32
77 40 69 3 -2 2 -16 -1 -30z m120 -24 c-25 -150 -59 -300 -71 -313 -24 -25
-33 0 -23 70 5 36 12 72 16 80 3 8 5 19 4 24 -6 24 12 86 24 86 8 0 17 4 20
10 3 6 -1 7 -9 4 -22 -8 -21 34 1 58 28 31 45 23 38 -19z m-70 -20 c-4 -10 -9
-40 -12 -68 -3 -27 -9 -54 -13 -60 -4 -5 -10 -46 -13 -90 -3 -44 -6 -81 -6
-81 -1 -1 -10 -4 -22 -7 -18 -5 -20 -2 -14 21 4 15 9 47 12 72 3 25 9 49 14
54 5 6 4 15 -2 22 -7 8 -5 23 5 49 9 21 13 41 10 47 -12 19 6 58 27 58 16 0
19 -4 14 -17z m-5346 -38 c23 -30 103 -263 92 -269 -4 -3 -13 -1 -20 3 -15 10
-113 291 -101 291 5 0 18 -11 29 -25z m5281 12 c0 -19 -27 -53 -36 -45 -9 10
12 58 26 58 5 0 10 -6 10 -13z m-16 -76 c11 -17 -6 -71 -21 -71 -11 0 -14 7
-9 23 3 12 6 30 6 40 0 18 15 23 24 8z m-44 -40 c0 -16 -7 -34 -15 -41 -12
-10 -15 -9 -15 6 0 30 12 64 21 64 5 0 9 -13 9 -29z m36 -57 c-3 -9 -6 -24 -6
-35 0 -10 -7 -19 -15 -19 -19 0 -21 56 -2 63 23 10 29 7 23 -9z m-46 -16 c0
-25 -12 -58 -21 -58 -10 0 -12 53 -2 63 10 11 23 8 23 -5z m-5076 -64 c27 -57
28 -71 4 -61 -11 4 -48 97 -48 121 0 18 20 -9 44 -60z m1495 41 c16 -8 43 -31
60 -52 l31 -38 28 34 c15 19 34 44 44 55 l16 21 39 -21 c21 -12 55 -27 76 -34
36 -11 42 -10 88 19 49 30 89 40 89 22 0 -4 -16 -51 -36 -102 -19 -52 -68
-184 -109 -294 -94 -257 -103 -275 -132 -275 -33 0 -44 23 -118 235 -83 240
-90 256 -130 295 -28 27 -38 31 -64 25 -27 -6 -31 -4 -31 15 0 33 30 78 64 94
39 19 50 20 85 1z m729 -2 c152 -4 162 -5 162 -23 0 -19 -15 -26 -70 -32 l-25
-3 -3 -254 c-3 -295 -3 -294 76 -305 58 -8 86 -25 77 -48 -11 -28 -44 -32 -69
-9 -21 19 -34 21 -179 21 l-157 0 0 25 c0 22 4 24 58 27 l57 3 3 241 c1 140
-2 253 -7 267 -8 19 -21 29 -53 37 -70 18 -88 28 -88 51 0 18 4 20 28 14 15
-5 100 -10 190 -12z m415 1 c18 -9 34 -20 37 -24 3 -3 16 -20 28 -36 l24 -29
26 30 c15 17 34 41 43 55 l16 25 58 -29 c75 -37 113 -37 158 -3 37 28 77 36
77 15 0 -7 -20 -67 -45 -133 -25 -66 -66 -176 -91 -245 -90 -251 -106 -285
-137 -288 -25 -3 -30 2 -51 50 -13 29 -44 115 -70 190 -64 187 -89 245 -121
286 -24 30 -32 34 -61 29 -31 -5 -34 -4 -34 19 0 36 17 62 53 84 39 24 49 25
90 4z m1097 -20 c0 -9 -10 -30 -22 -47 -22 -31 -23 -40 -23 -257 0 -223 0
-226 26 -278 18 -37 23 -55 15 -58 -7 -3 -84 -3 -171 -2 -134 3 -160 5 -160
18 0 11 17 16 69 21 96 8 106 21 106 145 l0 95 -142 -3 -143 -3 -7 -66 c-14
-146 -59 -240 -107 -224 -29 9 -26 37 10 88 27 39 33 62 54 198 12 85 26 196
30 247 l7 92 -57 0 c-48 0 -56 2 -53 18 5 25 45 29 321 31 220 1 247 -1 247
-15z m1380 -33 c0 -5 -7 -14 -15 -21 -13 -10 -15 -9 -15 9 0 12 6 21 15 21 8
0 15 -4 15 -9z m-54 -38 c-11 -11 -19 6 -11 24 8 17 8 17 12 0 3 -10 2 -21 -1
-24z m-36 -10 c0 -19 -3 -24 -10 -17 -6 6 -8 18 -4 27 9 24 14 21 14 -10z
m-2207 -630 c90 -4 127 -9 127 -17 0 -7 -19 -16 -42 -22 l-43 -9 -3 -190 c-1
-104 0 -200 3 -212 8 -33 33 -53 68 -53 41 0 60 -13 55 -36 -4 -24 -41 -30
-58 -9 -10 12 -37 15 -141 15 -121 0 -129 1 -129 19 0 16 9 21 45 27 l45 6 0
208 c0 154 -3 210 -12 218 -7 5 -32 15 -55 21 -33 9 -43 17 -43 33 0 17 4 19
28 13 15 -4 84 -9 155 -12z m330 6 c12 -7 34 -26 49 -43 26 -30 27 -31 41 -11
8 11 24 31 35 45 l20 25 46 -23 c57 -27 96 -28 129 -2 14 11 35 20 47 20 27 0
31 12 -64 -233 -13 -34 -34 -91 -46 -127 -53 -150 -75 -195 -97 -198 -28 -4
-38 16 -93 178 -52 153 -94 248 -118 266 -9 8 -28 13 -42 11 -31 -3 -38 24
-15 59 26 40 70 53 108 33z m-1406 -23 c16 -14 38 -41 48 -60 11 -20 24 -35
30 -33 5 2 22 29 37 60 31 63 55 72 103 41 23 -15 27 -15 50 0 23 15 55 22 55
11 0 -3 -6 -21 -14 -40 -18 -43 -54 -66 -108 -69 -40 -3 -45 -7 -67 -49 l-25
-45 27 -63 c42 -99 91 -158 148 -182 27 -12 49 -24 49 -28 0 -4 -22 -24 -49
-44 l-50 -36 -38 24 c-56 36 -100 87 -115 131 -7 22 -18 41 -24 43 -6 2 -21
-20 -35 -49 -13 -28 -32 -62 -42 -75 -24 -29 -108 -73 -142 -73 -34 0 -32 25
3 38 56 20 123 104 164 209 17 41 17 41 -17 110 -39 79 -67 108 -115 118 l-35
8 44 38 c50 45 78 49 118 15z m528 -7 c20 -18 43 -45 51 -60 8 -16 18 -29 23
-29 5 0 22 26 37 58 32 63 56 75 98 46 24 -15 28 -15 51 0 26 17 55 21 55 7 0
-55 -56 -103 -122 -105 -37 -1 -42 -4 -64 -48 l-24 -46 26 -58 c43 -98 93
-162 147 -187 26 -12 47 -26 47 -32 0 -5 -21 -24 -47 -42 -46 -32 -47 -32 -76
-15 -41 24 -117 100 -117 118 0 8 -7 29 -16 47 l-17 32 -32 -67 c-17 -37 -38
-74 -46 -84 -18 -22 -107 -64 -136 -64 -34 0 -28 28 10 44 58 25 130 122 157
212 11 37 10 45 -15 95 -45 88 -63 108 -110 122 l-44 12 46 38 c25 20 54 37
64 37 10 0 34 -14 54 -31z"/>
<path d="M10896 7365 c-3 -9 -6 -22 -5 -28 0 -7 5 -1 10 12 5 13 8 26 5 28 -2
2 -6 -3 -10 -12z"/>
<path d="M6005 4524 c-9 -50 -1 -52 18 -4 12 32 13 40 2 40 -7 0 -16 -16 -20
-36z"/>
<path d="M7185 4526 c-58 -25 -94 -116 -60 -149 23 -23 44 -21 54 6 10 24 -11
57 -36 57 -16 0 -17 22 -1 38 20 20 58 14 115 -19 29 -17 75 -34 101 -38 l47
-7 -41 -21 c-48 -25 -101 -83 -110 -118 -7 -28 -13 -30 -48 -14 -26 12 -76 5
-76 -11 0 -6 11 -10 23 -10 28 0 53 -25 62 -62 9 -36 -1 -64 -18 -50 -21 17
-87 19 -87 2 0 -5 8 -10 18 -10 61 0 103 -130 69 -213 -24 -57 -41 -64 -94
-38 -42 20 -47 21 -70 6 -24 -16 -56 -75 -46 -85 3 -3 8 1 10 8 6 17 44 15 82
-4 45 -22 90 -11 150 36 90 71 126 143 185 372 31 120 45 148 102 202 24 23
44 45 44 48 0 2 -24 3 -54 0 -48 -4 -64 1 -142 38 -101 48 -137 56 -179 36z
m258 -148 c-53 -54 -76 -108 -119 -279 -41 -166 -54 -197 -95 -237 -39 -38
-76 -46 -41 -9 28 29 45 80 83 241 45 194 77 255 159 309 48 31 54 17 13 -25z"/>
<path d="M5645 4480 c-16 -17 -35 -28 -42 -25 -49 20 -49 20 -30 -2 9 -11 26
-55 36 -99 50 -210 83 -376 77 -397 -5 -20 1 -26 38 -44 l43 -21 16 28 c16 27
16 28 -13 51 -24 19 -30 34 -34 74 -3 28 -10 70 -16 95 -6 25 -10 57 -8 72 3
15 1 25 -3 22 -9 -5 -13 8 -34 122 -16 84 -16 93 -1 122 21 40 8 41 -29 2z"/>
<path d="M6185 4383 c-33 -44 -37 -53 -22 -47 21 8 26 -14 37 -163 6 -91 6
-142 -1 -154 -8 -16 -4 -24 18 -44 l28 -24 22 27 c20 23 21 29 9 47 -9 13 -15
66 -18 145 -5 117 -4 127 16 150 11 14 14 19 6 13 -20 -18 -30 -16 -30 7 0 21
-27 70 -39 70 -3 0 -15 -13 -26 -27z"/>
<path d="M6328 4383 l-26 -28 24 -25 c23 -23 24 -31 24 -155 0 -129 10 -198
32 -211 11 -7 67 52 68 71 0 6 -5 3 -10 -5 -23 -34 -30 16 -28 176 2 111 0
160 -8 157 -5 -2 -16 8 -24 22 -17 31 -20 31 -52 -2z"/>
<path d="M6610 4379 c-25 -16 -50 -33 -57 -38 -7 -7 -12 -63 -12 -171 l-2
-161 30 -34 c29 -34 29 -34 44 -12 12 19 12 23 -5 37 -17 14 -18 27 -11 173 4
109 10 160 18 163 7 3 29 -5 49 -17 l37 -22 -6 -91 c-4 -50 -11 -107 -16 -126
-10 -44 1 -95 35 -156 14 -26 24 -49 22 -52 -3 -2 -21 3 -40 12 -19 9 -54 16
-79 16 -41 0 -47 -3 -66 -35 -22 -38 -21 -39 27 -26 24 7 44 6 76 -6 44 -17
45 -16 79 10 48 37 52 56 27 132 -21 62 -21 71 -9 196 l12 131 29 -6 c27 -5
28 -4 28 35 l0 40 -30 -16 c-29 -15 -32 -15 -73 13 -23 16 -47 31 -52 35 -6 3
-31 -8 -55 -24z"/>
<path d="M5978 4373 c-26 -31 -29 -42 -17 -64 6 -12 20 -90 30 -172 13 -102
25 -160 38 -179 l18 -29 27 42 c15 23 23 39 18 35 -21 -13 -32 25 -42 145 -6
68 -13 129 -14 134 -2 6 1 21 6 34 7 19 4 29 -13 48 -27 28 -31 28 -51 6z"/>
<path d="M5759 4328 c-15 -33 -15 -33 21 -71 l36 -37 18 31 18 31 -39 39 -39
40 -15 -33z"/>
<path d="M5493 4259 c-20 -21 -25 -21 -83 -10 l-61 12 -42 -48 c-23 -26 -41
-53 -41 -59 1 -7 23 -78 50 -159 47 -144 49 -147 87 -167 32 -16 41 -17 48 -6
13 21 11 29 -11 35 -16 4 -29 33 -61 135 -22 72 -43 146 -46 165 -6 33 -5 34
21 29 14 -4 36 -8 49 -11 20 -4 27 -19 52 -107 16 -57 29 -112 30 -123 1 -33
33 -82 75 -116 22 -18 40 -37 40 -43 0 -6 -24 -12 -57 -13 -96 -2 -102 -4
-108 -38 -4 -16 -9 -38 -11 -48 -5 -14 1 -13 33 9 30 21 46 25 80 21 39 -4 44
-2 68 32 33 48 32 82 -4 123 -15 18 -35 47 -43 63 -15 29 -68 227 -68 253 0 7
12 12 26 12 20 0 25 4 20 16 -3 9 -6 27 -6 40 0 30 -9 30 -37 3z"/>
<path d="M7938 4248 c3 -27 -15 -81 -76 -229 -44 -107 -82 -204 -86 -217 -4
-12 -16 -27 -26 -32 -17 -9 -18 -14 -8 -38 18 -41 23 -44 51 -31 18 8 27 20
27 35 0 30 99 264 112 264 5 0 7 4 4 9 -6 9 17 68 57 150 12 24 36 52 52 63
l30 18 -28 0 c-16 0 -38 -5 -50 -11 -16 -9 -22 -9 -25 -1 -2 7 -11 21 -21 33
-17 21 -17 21 -13 -13z"/>
<path d="M5779 4169 l-21 -41 25 -27 c30 -32 47 -64 47 -88 0 -10 9 -38 20
-62 l20 -44 29 44 c29 45 32 60 8 40 -20 -16 -30 -1 -57 79 -12 36 -28 75 -37
88 -8 13 -12 30 -9 38 11 30 -5 12 -25 -27z"/>
<path d="M7640 4195 c-19 -7 -45 -14 -57 -14 -20 -1 -26 -14 -54 -103 -44
-147 -61 -189 -76 -195 -17 -7 -17 -23 1 -23 8 0 32 -21 54 -46 33 -38 42 -45
58 -36 11 5 36 12 56 16 33 6 39 12 54 54 9 26 24 63 31 82 8 19 26 68 40 108
l25 73 -43 47 c-24 26 -46 48 -49 49 -3 1 -21 -5 -40 -12z m34 -79 l25 -33
-45 -124 c-25 -68 -49 -128 -53 -132 -5 -4 -22 8 -39 27 l-31 35 40 123 c23
68 42 129 44 135 6 19 31 5 59 -31z"/>
<path d="M5047 4135 c-9 -20 -17 -37 -17 -39 0 -2 13 -9 30 -16 16 -7 32 -22
36 -34 22 -74 100 -258 116 -275 25 -28 34 -26 46 7 5 15 14 36 18 47 7 17 6
18 -8 7 -20 -16 -30 -4 -51 58 -8 25 -29 82 -46 128 -17 46 -31 100 -32 120 0
33 -1 35 -10 14 -9 -24 -18 -23 -50 4 -13 12 -18 9 -32 -21z"/>
<path d="M4231 4157 c-1 -5 8 -29 18 -55 11 -26 22 -56 26 -67 5 -13 9 -15 12
-7 3 6 -9 40 -25 75 -17 34 -31 58 -31 54z"/>
<path d="M4321 4148 c-1 -4 8 -30 19 -58 11 -28 20 -57 20 -64 0 -14 -146 -74
-155 -64 -2 2 -20 38 -39 79 -39 84 -49 70 -11 -17 14 -31 25 -61 25 -66 0
-10 -51 -57 -62 -58 -4 0 -19 25 -33 55 -15 30 -31 55 -35 55 -10 0 -5 -15 34
-104 14 -32 26 -66 26 -76 0 -10 7 -20 15 -24 8 -3 15 -10 15 -17 0 -6 -7 -8
-16 -5 -27 10 7 -36 40 -54 25 -14 28 -13 42 4 12 17 12 23 0 40 -8 12 -23 21
-34 20 -12 0 -25 9 -31 22 -11 26 7 48 50 59 26 6 28 4 60 -87 19 -51 32 -97
30 -103 -2 -5 -6 -21 -8 -35 -4 -23 -3 -24 10 -8 24 30 71 33 106 8 33 -23 40
-40 17 -40 -16 0 -66 -45 -66 -60 0 -6 12 -4 30 5 24 12 38 14 68 6 75 -21
151 -112 138 -166 -4 -14 -18 -27 -38 -35 -61 -22 -63 -24 -63 -79 1 -29 7
-56 14 -63 11 -11 13 -10 9 2 -8 23 9 47 38 54 79 20 107 72 108 201 0 104
-13 139 -114 311 -77 130 -94 179 -87 255 6 65 -3 74 -30 29 -9 -16 -23 -30
-29 -30 -6 0 -23 26 -37 58 -14 31 -26 54 -26 50z m86 -160 c-3 -8 -6 -5 -6 6
-1 11 2 17 5 13 3 -3 4 -12 1 -19z m8 -94 c15 -55 48 -121 153 -299 48 -82 63
-136 49 -185 l-10 -35 -8 42 c-10 51 -11 55 -116 225 -102 165 -131 250 -107
313 10 25 22 6 39 -61z m-69 39 c-23 -76 -25 -113 -10 -163 8 -29 14 -53 12
-55 -11 -11 -42 -8 -48 5 -13 23 -60 149 -60 159 0 5 13 14 30 19 16 6 37 20
47 31 21 26 36 27 29 4z"/>
<path d="M4910 4085 c-33 -83 -32 -79 -15 -65 13 11 18 11 30 -1 22 -23 115
-248 115 -278 0 -23 6 -29 34 -38 33 -10 35 -10 46 20 8 25 7 34 -8 51 -22 24
-101 207 -105 240 -2 23 -11 36 -46 72 -30 30 -39 30 -51 -1z"/>
<path d="M8312 4073 c-19 -50 -25 -79 -14 -68 11 11 34 86 28 92 -2 2 -8 -9
-14 -24z"/>
<path d="M8611 3989 c-12 -39 -21 -72 -19 -75 2 -2 14 28 27 67 12 39 21 72
19 75 -2 2 -14 -28 -27 -67z"/>
<path d="M8018 4039 c-24 -9 -26 -13 -16 -35 14 -31 7 -54 -77 -230 -67 -142
-85 -161 -170 -187 -63 -19 -39 -21 38 -3 102 24 126 48 205 203 76 149 92
196 85 237 -6 28 -20 31 -65 15z"/>
<path d="M8392 4020 c0 -19 2 -27 5 -17 2 9 2 25 0 35 -3 9 -5 1 -5 -18z"/>
<path d="M8487 3973 c-10 -32 -26 -96 -37 -143 -42 -173 -104 -333 -132 -342
-7 -3 -14 -16 -15 -29 0 -13 -4 -35 -8 -49 -7 -24 -7 -24 7 -6 15 18 15 18 20
-2 5 -19 9 -20 47 -10 36 9 57 28 31 28 -21 0 -9 53 23 100 19 28 36 48 39 45
8 -8 23 16 42 68 10 27 24 51 30 53 7 3 13 10 14 17 2 33 24 140 32 163 6 15
9 29 6 31 -2 2 -12 -20 -21 -49 -22 -66 -21 -66 -72 -74 -35 -5 -43 -4 -43 8
0 15 51 198 65 231 4 9 3 17 -2 17 -6 0 -17 -26 -26 -57z m-7 -229 c0 -17 -70
-137 -76 -131 -5 4 25 106 37 130 12 21 39 22 39 1z"/>
<path d="M4686 3965 c-20 -30 -36 -57 -36 -60 0 -4 29 -61 65 -127 36 -67 65
-133 65 -148 0 -24 3 -26 30 -22 16 2 42 0 58 -6 28 -10 29 -9 60 54 18 35 28
64 24 64 -5 0 -14 -11 -20 -25 -10 -21 -18 -25 -56 -25 -43 0 -45 1 -61 43
-16 43 -16 44 18 134 l34 90 -31 21 c-47 31 -100 62 -107 62 -3 0 -23 -25 -43
-55z m80 -36 c31 -18 58 -38 61 -45 5 -14 -27 -104 -37 -104 -7 0 -90 155 -90
169 0 16 4 15 66 -20z"/>
<path d="M8382 3960 c0 -14 2 -19 5 -12 2 6 2 18 0 25 -3 6 -5 1 -5 -13z"/>
<path d="M3951 3944 c2 -5 26 -53 52 -108 27 -54 57 -123 69 -153 11 -30 22
-53 24 -50 13 12 -112 297 -137 313 -6 4 -10 3 -8 -2z"/>
<path d="M8233 3932 l-63 -3 -66 -130 c-36 -72 -74 -135 -84 -141 -17 -11 -16
-14 11 -42 16 -17 34 -44 40 -59 9 -22 17 -27 33 -23 12 3 40 6 63 6 41 0 43
1 78 64 20 35 43 70 52 78 40 33 91 194 58 181 -7 -2 -16 4 -19 14 -16 46 -38
58 -103 55z m47 -92 c11 -26 6 -38 -55 -149 -37 -67 -70 -121 -74 -121 -7 1
-51 68 -51 79 0 9 82 169 112 219 19 31 21 32 38 17 10 -9 23 -29 30 -45z"/>
<path d="M8371 3904 c0 -11 3 -14 6 -6 3 7 2 16 -1 19 -3 4 -6 -2 -5 -13z"/>
<path d="M3860 3892 c0 -6 42 -93 93 -194 52 -101 102 -205 112 -233 32 -90
107 -266 111 -262 10 10 -171 435 -236 557 -79 148 -80 148 -80 132z"/>
<path d="M8671 3829 c-7 -22 -11 -43 -8 -45 2 -2 9 14 16 37 7 22 11 43 8 45
-2 2 -9 -14 -16 -37z"/>
<path d="M8841 3829 c-7 -22 -11 -43 -8 -45 2 -2 9 14 16 37 7 22 11 43 8 45
-2 2 -9 -14 -16 -37z"/>
<path d="M3791 3857 c-1 -4 21 -51 48 -105 26 -53 64 -133 83 -177 20 -44 48
-108 63 -143 36 -81 43 -74 9 9 -31 77 -203 427 -203 416z"/>
<path d="M8910 3768 c-18 -46 -54 -144 -81 -218 -121 -344 -124 -351 -201
-483 -41 -70 -48 -107 -9 -43 55 89 138 276 192 431 32 94 78 221 102 283 25
61 42 112 37 112 -4 0 -22 -37 -40 -82z"/>
<path d="M8751 3784 c-14 -49 -7 -56 9 -9 7 20 10 39 7 42 -3 3 -10 -12 -16
-33z"/>
<path d="M3730 3797 c0 -4 29 -65 64 -135 35 -70 76 -155 91 -190 16 -34 30
-61 32 -59 4 5 -79 193 -128 287 -43 83 -59 109 -59 97z"/>
<path d="M8645 3747 c-5 -18 -17 -30 -39 -37 -30 -9 -31 -12 -28 -55 2 -25 8
-45 12 -45 10 0 -46 -138 -82 -203 -15 -26 -30 -57 -34 -70 -6 -20 -5 -20 14
4 21 25 72 136 107 231 10 26 25 48 35 51 15 4 19 17 22 73 4 76 2 89 -7 51z"/>
<path d="M8942 3643 c-34 -90 -47 -130 -39 -123 8 8 77 194 73 198 -2 2 -17
-32 -34 -75z"/>
<path d="M4106 3600 c3 -14 10 -32 15 -40 7 -13 8 -13 8 0 0 8 -6 26 -15 40
l-15 25 7 -25z"/>
<path d="M8721 3469 c-6 -18 -9 -34 -7 -36 2 -2 9 10 15 28 6 18 9 34 7 36 -2
2 -9 -10 -15 -28z"/>
<path d="M8611 3404 c-19 -35 -31 -67 -28 -71 4 -3 21 24 38 62 16 37 29 69
27 71 -3 2 -19 -26 -37 -62z"/>
<path d="M3814 3441 c3 -4 10 -21 16 -36 6 -15 13 -25 16 -22 6 6 -23 67 -32
67 -3 0 -3 -4 0 -9z"/>
<path d="M8668 3342 c-20 -42 -64 -121 -97 -174 -34 -53 -61 -102 -61 -109 0
-7 15 12 33 42 18 30 52 84 76 121 38 60 95 187 88 194 -2 2 -19 -31 -39 -74z"/>
<path d="M3851 3365 c0 -5 11 -30 24 -55 13 -25 24 -40 24 -35 0 6 -11 30 -24
55 -13 25 -24 41 -24 35z"/>
<path d="M3961 3303 c31 -69 60 -113 40 -61 -14 38 -61 128 -66 128 -2 0 9
-30 26 -67z"/>
<path d="M8836 3355 c-3 -9 -6 -22 -5 -28 0 -7 5 -1 10 12 5 13 8 26 5 28 -2
2 -6 -3 -10 -12z"/>
<path d="M3901 3255 c0 -5 22 -53 50 -105 27 -52 47 -84 43 -70 -11 42 -94
198 -93 175z"/>
<path d="M8796 3225 c-9 -26 -7 -32 5 -12 6 10 9 21 6 23 -2 3 -7 -2 -11 -11z"/>
<path d="M8729 3058 c-55 -128 -55 -126 -35 -107 17 16 90 198 83 205 -2 2
-24 -42 -48 -98z"/>
<path d="M9716 4385 c-9 -26 -7 -32 5 -12 6 10 9 21 6 23 -2 3 -7 -2 -11 -11z"/>
<path d="M8841 4358 c-7 -35 -21 -83 -32 -107 -26 -60 -23 -66 6 -10 22 42 52
166 42 175 -2 3 -10 -24 -16 -58z"/>
<path d="M8831 4189 c-6 -18 -9 -34 -7 -36 2 -2 9 10 16 27 7 17 10 33 8 36
-3 3 -11 -9 -17 -27z"/>
<path d="M3180 4002 c0 -5 31 -83 69 -173 122 -292 169 -413 192 -486 28 -88
36 -89 14 -2 -19 73 -170 457 -231 586 -13 28 -24 56 -24 62 0 5 -4 13 -10 16
-5 3 -10 2 -10 -3z"/>
<path d="M3140 3873 c0 -4 8 -21 18 -38 10 -16 29 -56 41 -88 13 -32 25 -56
28 -54 5 6 -67 176 -78 183 -5 3 -9 2 -9 -3z"/>
<path d="M3231 3670 c0 -8 6 -26 15 -40 l15 -25 -7 25 c-3 14 -10 32 -15 40
-7 13 -8 13 -8 0z"/>
<path d="M3260 3600 c-1 -11 53 -166 66 -190 17 -32 17 -18 0 45 -11 43 -64
160 -66 145z"/>
<path d="M9301 3564 c0 -11 3 -14 6 -6 3 7 2 16 -1 19 -3 4 -6 -2 -5 -13z"/>
<path d="M9271 3449 c-15 -68 -7 -75 9 -9 7 28 10 53 7 56 -3 3 -10 -18 -16
-47z"/>
<path d="M9391 3443 c-1 -6 -4 -20 -7 -30 -5 -17 -5 -17 6 0 6 10 9 23 6 30
-3 9 -5 9 -5 0z"/>
<path d="M9356 3324 c-4 -14 -5 -28 -3 -31 3 -2 8 8 11 23 4 14 5 28 3 31 -3
2 -8 -8 -11 -23z"/>
<path d="M5484 3097 c-4 -13 39 -142 85 -254 l17 -42 52 133 c29 73 52 136 52
139 0 4 -20 7 -43 7 -24 0 -66 7 -93 15 -60 18 -63 18 -70 2z"/>
<path d="M6632 3102 c-9 -7 0 -42 40 -150 28 -79 55 -139 59 -135 4 5 30 64
56 133 l49 125 -60 7 c-34 3 -74 11 -89 17 -33 13 -38 13 -55 3z"/>
<path d="M7197 3128 c-4 -24 -9 -73 -13 -110 l-6 -68 127 0 128 0 -5 83 c-3
45 -12 94 -18 110 -13 27 -14 27 -110 27 l-98 0 -5 -42z"/>
<path d="M7115 2401 c-3 -5 15 -63 39 -128 40 -106 45 -116 54 -93 40 99 72
186 72 192 0 5 -17 8 -39 8 -21 0 -55 7 -74 15 -43 18 -44 18 -52 6z"/>
<path d="M1175 10620 c-3 -6 13 -9 39 -8 25 1 43 4 40 7 -9 9 -74 10 -79 1z"/>
<path d="M1071 10616 c10 -8 89 -13 83 -5 -3 5 -24 9 -46 9 -23 0 -39 -2 -37
-4z"/>
<path d="M2128 10603 c7 -3 16 -2 19 1 4 3 -2 6 -13 5 -11 0 -14 -3 -6 -6z"/>
<path d="M870 10561 c-32 -32 -40 -49 -40 -77 0 -27 5 -37 20 -41 11 -3 21
-13 21 -22 1 -9 3 -279 4 -601 2 -322 6 -610 9 -640 2 -30 10 -129 15 -220 6
-91 13 -190 16 -220 38 -394 86 -761 134 -1025 11 -60 22 -126 26 -145 18
-106 118 -573 145 -680 11 -41 26 -103 35 -137 37 -154 47 -192 65 -253 10
-36 26 -92 36 -125 31 -112 86 -290 94 -310 8 -18 22 -61 25 -75 4 -16 40
-131 52 -165 8 -22 17 -47 19 -55 8 -35 57 -166 66 -177 6 -7 8 -22 5 -33 -3
-11 -1 -20 4 -20 5 0 11 -12 15 -27 3 -16 17 -53 31 -83 14 -30 26 -67 26 -82
0 -15 4 -25 9 -22 11 7 10 -13 -1 -35 -7 -13 -6 -18 4 -18 8 0 11 5 8 10 -3 6
-1 7 5 3 7 -4 12 -16 12 -26 0 -10 5 -22 10 -25 6 -3 10 -15 10 -25 0 -14 -5
-18 -17 -13 -16 6 -16 5 0 -12 16 -15 20 -16 29 -4 8 11 9 10 4 -4 -3 -10 -6
-23 -6 -28 0 -6 -6 -7 -12 -4 -7 4 -4 0 6 -9 10 -8 22 -13 27 -11 13 9 20 -31
9 -59 -7 -20 -7 -25 1 -20 16 9 30 -18 18 -33 -12 -14 7 -57 21 -48 4 3 6 -5
2 -17 -4 -16 -2 -19 8 -13 9 5 11 4 6 -3 -10 -16 12 -54 27 -46 9 5 9 4 0 -6
-10 -11 -9 -21 6 -49 10 -20 26 -54 37 -76 10 -22 21 -42 24 -45 6 -5 31 -61
32 -70 2 -13 72 -146 80 -151 5 -3 9 -9 8 -13 -1 -9 83 -175 136 -267 24 -42
44 -81 44 -87 0 -7 5 -12 10 -12 6 0 10 -5 10 -10 0 -30 352 -588 536 -850
140 -199 399 -531 503 -645 15 -16 70 -79 121 -140 52 -60 208 -225 347 -365
537 -541 1094 -973 1721 -1332 272 -155 726 -378 769 -378 7 0 26 27 42 60 27
55 29 61 13 67 -91 33 -455 210 -659 321 -379 206 -920 578 -1233 848 -450
388 -878 830 -1196 1234 -348 443 -575 781 -864 1285 -97 170 -362 694 -422
836 -20 46 -53 122 -73 169 -397 919 -693 2016 -820 3032 -76 615 -100 1052
-91 1673 7 500 10 544 35 552 9 3 22 7 30 9 11 4 11 8 -3 22 -10 9 -28 35 -40
57 -30 56 -57 57 -106 6z m960 -5572 c0 -6 -4 -7 -10 -4 -5 3 -10 11 -10 16 0
6 5 7 10 4 6 -3 10 -11 10 -16z"/>
<path d="M2007 10590 c-20 -4 -40 -10 -44 -14 -4 -3 7 -4 23 -1 16 3 49 10 74
14 32 6 36 9 15 9 -16 0 -47 -4 -68 -8z"/>
<path d="M1890 10570 l-35 -7 32 -2 c17 0 35 4 38 9 3 6 5 9 3 9 -2 -1 -19 -5
-38 -9z"/>
<path d="M1628 10533 c7 -3 16 -2 19 1 4 3 -2 6 -13 5 -11 0 -14 -3 -6 -6z"/>
<path d="M1588 10523 c7 -3 16 -2 19 1 4 3 -2 6 -13 5 -11 0 -14 -3 -6 -6z"/>
<path d="M1671 5344 c0 -11 3 -14 6 -6 3 7 2 16 -1 19 -3 4 -6 -2 -5 -13z"/>
<path d="M1762 5089 c8 -23 13 -27 19 -17 5 7 8 20 8 28 0 10 -3 8 -9 -5 -7
-16 -9 -17 -9 -3 -1 9 -5 19 -11 23 -5 3 -5 -8 2 -26z"/>
<path d="M6328 1183 c7 -3 16 -2 19 1 4 3 -2 6 -13 5 -11 0 -14 -3 -6 -6z"/>
</g>
</svg>
